<mxfile host="app.diagrams.net" modified="2022-05-29T10:07:57.364Z" agent="5.0 (Windows NT 10.0; Win64; x64) AppleWebKit/537.36 (KHTML, like Gecko) Chrome/101.0.4951.64 Safari/537.36 Edg/101.0.1210.53" etag="r5dXujQzxfg9fWA25rZU" version="14.9.3" type="github">
  <diagram id="QmQfWZWqZ4KhC8wAtW3j" name="Page-1">
    <mxGraphModel dx="1006" dy="709" grid="1" gridSize="10" guides="1" tooltips="1" connect="1" arrows="1" fold="1" page="1" pageScale="1" pageWidth="850" pageHeight="1100" math="0" shadow="0">
      <root>
        <mxCell id="0" />
        <mxCell id="1" parent="0" />
        <mxCell id="i0W9wjr1l6Ue2SRptQaa-4" style="edgeStyle=orthogonalEdgeStyle;rounded=0;orthogonalLoop=1;jettySize=auto;html=1;exitX=0.5;exitY=1;exitDx=0;exitDy=0;entryX=0.5;entryY=0;entryDx=0;entryDy=0;" edge="1" parent="1" source="i0W9wjr1l6Ue2SRptQaa-1" target="i0W9wjr1l6Ue2SRptQaa-2">
          <mxGeometry relative="1" as="geometry" />
        </mxCell>
        <mxCell id="i0W9wjr1l6Ue2SRptQaa-18" style="edgeStyle=orthogonalEdgeStyle;rounded=0;orthogonalLoop=1;jettySize=auto;html=1;exitX=0;exitY=0.5;exitDx=0;exitDy=0;entryX=1;entryY=0.5;entryDx=0;entryDy=0;entryPerimeter=0;" edge="1" parent="1" source="i0W9wjr1l6Ue2SRptQaa-1" target="i0W9wjr1l6Ue2SRptQaa-15">
          <mxGeometry relative="1" as="geometry" />
        </mxCell>
        <mxCell id="i0W9wjr1l6Ue2SRptQaa-1" value="Quotation" style="rounded=1;whiteSpace=wrap;html=1;absoluteArcSize=1;arcSize=14;strokeWidth=2;" vertex="1" parent="1">
          <mxGeometry x="200" y="70" width="100" height="60" as="geometry" />
        </mxCell>
        <mxCell id="i0W9wjr1l6Ue2SRptQaa-5" style="edgeStyle=orthogonalEdgeStyle;rounded=0;orthogonalLoop=1;jettySize=auto;html=1;exitX=1;exitY=0.5;exitDx=0;exitDy=0;entryX=0;entryY=0.5;entryDx=0;entryDy=0;" edge="1" parent="1" source="i0W9wjr1l6Ue2SRptQaa-2" target="i0W9wjr1l6Ue2SRptQaa-3">
          <mxGeometry relative="1" as="geometry" />
        </mxCell>
        <mxCell id="i0W9wjr1l6Ue2SRptQaa-7" style="edgeStyle=orthogonalEdgeStyle;rounded=0;orthogonalLoop=1;jettySize=auto;html=1;exitX=0.5;exitY=1;exitDx=0;exitDy=0;entryX=0.5;entryY=0;entryDx=0;entryDy=0;" edge="1" parent="1" source="i0W9wjr1l6Ue2SRptQaa-2">
          <mxGeometry relative="1" as="geometry">
            <mxPoint x="250" y="350" as="targetPoint" />
          </mxGeometry>
        </mxCell>
        <mxCell id="i0W9wjr1l6Ue2SRptQaa-20" style="edgeStyle=orthogonalEdgeStyle;rounded=0;orthogonalLoop=1;jettySize=auto;html=1;exitX=0;exitY=0.25;exitDx=0;exitDy=0;entryX=1;entryY=0.5;entryDx=0;entryDy=0;entryPerimeter=0;" edge="1" parent="1" source="i0W9wjr1l6Ue2SRptQaa-2" target="i0W9wjr1l6Ue2SRptQaa-17">
          <mxGeometry relative="1" as="geometry" />
        </mxCell>
        <mxCell id="i0W9wjr1l6Ue2SRptQaa-23" style="edgeStyle=orthogonalEdgeStyle;rounded=0;orthogonalLoop=1;jettySize=auto;html=1;exitX=0;exitY=0.5;exitDx=0;exitDy=0;entryX=1;entryY=0.25;entryDx=0;entryDy=0;entryPerimeter=0;" edge="1" parent="1" source="i0W9wjr1l6Ue2SRptQaa-2" target="i0W9wjr1l6Ue2SRptQaa-19">
          <mxGeometry relative="1" as="geometry" />
        </mxCell>
        <mxCell id="i0W9wjr1l6Ue2SRptQaa-36" style="edgeStyle=orthogonalEdgeStyle;rounded=0;orthogonalLoop=1;jettySize=auto;html=1;exitX=0.25;exitY=1;exitDx=0;exitDy=0;entryX=0.75;entryY=0;entryDx=0;entryDy=0;" edge="1" parent="1" source="i0W9wjr1l6Ue2SRptQaa-2" target="i0W9wjr1l6Ue2SRptQaa-35">
          <mxGeometry relative="1" as="geometry" />
        </mxCell>
        <mxCell id="i0W9wjr1l6Ue2SRptQaa-2" value="Sales Order" style="rounded=1;whiteSpace=wrap;html=1;absoluteArcSize=1;arcSize=14;strokeWidth=2;" vertex="1" parent="1">
          <mxGeometry x="200" y="210" width="100" height="60" as="geometry" />
        </mxCell>
        <mxCell id="i0W9wjr1l6Ue2SRptQaa-9" style="edgeStyle=orthogonalEdgeStyle;rounded=0;orthogonalLoop=1;jettySize=auto;html=1;exitX=0.5;exitY=1;exitDx=0;exitDy=0;entryX=1;entryY=0.25;entryDx=0;entryDy=0;" edge="1" parent="1" source="i0W9wjr1l6Ue2SRptQaa-3" target="i0W9wjr1l6Ue2SRptQaa-8">
          <mxGeometry relative="1" as="geometry" />
        </mxCell>
        <mxCell id="i0W9wjr1l6Ue2SRptQaa-3" value="Recurring Order" style="rounded=1;whiteSpace=wrap;html=1;absoluteArcSize=1;arcSize=14;strokeWidth=2;" vertex="1" parent="1">
          <mxGeometry x="440" y="210" width="100" height="60" as="geometry" />
        </mxCell>
        <mxCell id="i0W9wjr1l6Ue2SRptQaa-10" style="edgeStyle=orthogonalEdgeStyle;rounded=0;orthogonalLoop=1;jettySize=auto;html=1;exitX=0;exitY=0.25;exitDx=0;exitDy=0;entryX=1;entryY=0.75;entryDx=0;entryDy=0;" edge="1" parent="1" source="i0W9wjr1l6Ue2SRptQaa-8" target="i0W9wjr1l6Ue2SRptQaa-2">
          <mxGeometry relative="1" as="geometry" />
        </mxCell>
        <mxCell id="i0W9wjr1l6Ue2SRptQaa-8" value="Daily Scheduler" style="rounded=1;whiteSpace=wrap;html=1;absoluteArcSize=1;arcSize=14;strokeWidth=2;" vertex="1" parent="1">
          <mxGeometry x="360" y="290" width="100" height="60" as="geometry" />
        </mxCell>
        <mxCell id="i0W9wjr1l6Ue2SRptQaa-11" value="Create" style="text;html=1;strokeColor=none;fillColor=none;align=center;verticalAlign=middle;whiteSpace=wrap;rounded=0;" vertex="1" parent="1">
          <mxGeometry x="330" y="260" width="40" height="20" as="geometry" />
        </mxCell>
        <mxCell id="i0W9wjr1l6Ue2SRptQaa-13" value="Create" style="text;html=1;strokeColor=none;fillColor=none;align=center;verticalAlign=middle;whiteSpace=wrap;rounded=0;" vertex="1" parent="1">
          <mxGeometry x="350" y="220" width="40" height="20" as="geometry" />
        </mxCell>
        <mxCell id="i0W9wjr1l6Ue2SRptQaa-14" value="When the date comes" style="text;html=1;strokeColor=none;fillColor=none;align=center;verticalAlign=middle;whiteSpace=wrap;rounded=0;" vertex="1" parent="1">
          <mxGeometry x="500" y="290" width="80" height="20" as="geometry" />
        </mxCell>
        <mxCell id="i0W9wjr1l6Ue2SRptQaa-15" value="Quotation" style="strokeWidth=2;html=1;shape=mxgraph.flowchart.document2;whiteSpace=wrap;size=0.25;" vertex="1" parent="1">
          <mxGeometry x="40" y="70" width="100" height="60" as="geometry" />
        </mxCell>
        <mxCell id="i0W9wjr1l6Ue2SRptQaa-17" value="Order sheet" style="strokeWidth=2;html=1;shape=mxgraph.flowchart.document2;whiteSpace=wrap;size=0.25;" vertex="1" parent="1">
          <mxGeometry x="40" y="170" width="100" height="60" as="geometry" />
        </mxCell>
        <mxCell id="i0W9wjr1l6Ue2SRptQaa-19" value="Proforma invoice" style="strokeWidth=2;html=1;shape=mxgraph.flowchart.document2;whiteSpace=wrap;size=0.25;" vertex="1" parent="1">
          <mxGeometry x="40" y="240" width="100" height="60" as="geometry" />
        </mxCell>
        <mxCell id="i0W9wjr1l6Ue2SRptQaa-39" style="edgeStyle=orthogonalEdgeStyle;rounded=0;orthogonalLoop=1;jettySize=auto;html=1;exitX=0.25;exitY=1;exitDx=0;exitDy=0;entryX=0.687;entryY=0.006;entryDx=0;entryDy=0;entryPerimeter=0;" edge="1" parent="1" source="i0W9wjr1l6Ue2SRptQaa-34" target="i0W9wjr1l6Ue2SRptQaa-38">
          <mxGeometry relative="1" as="geometry" />
        </mxCell>
        <mxCell id="i0W9wjr1l6Ue2SRptQaa-34" value="Work Order" style="rounded=1;whiteSpace=wrap;html=1;absoluteArcSize=1;arcSize=14;strokeWidth=2;" vertex="1" parent="1">
          <mxGeometry x="200" y="350" width="100" height="60" as="geometry" />
        </mxCell>
        <mxCell id="i0W9wjr1l6Ue2SRptQaa-40" style="edgeStyle=orthogonalEdgeStyle;rounded=0;orthogonalLoop=1;jettySize=auto;html=1;exitX=0.75;exitY=1;exitDx=0;exitDy=0;entryX=0.25;entryY=0;entryDx=0;entryDy=0;" edge="1" parent="1" source="i0W9wjr1l6Ue2SRptQaa-35" target="i0W9wjr1l6Ue2SRptQaa-38">
          <mxGeometry relative="1" as="geometry" />
        </mxCell>
        <mxCell id="i0W9wjr1l6Ue2SRptQaa-35" value="Delivery Order" style="rounded=1;whiteSpace=wrap;html=1;absoluteArcSize=1;arcSize=14;strokeWidth=2;" vertex="1" parent="1">
          <mxGeometry x="50" y="350" width="100" height="60" as="geometry" />
        </mxCell>
        <mxCell id="i0W9wjr1l6Ue2SRptQaa-43" style="edgeStyle=orthogonalEdgeStyle;rounded=0;orthogonalLoop=1;jettySize=auto;html=1;exitX=0.5;exitY=1;exitDx=0;exitDy=0;entryX=0.5;entryY=0;entryDx=0;entryDy=0;" edge="1" parent="1" source="i0W9wjr1l6Ue2SRptQaa-38" target="i0W9wjr1l6Ue2SRptQaa-41">
          <mxGeometry relative="1" as="geometry" />
        </mxCell>
        <mxCell id="i0W9wjr1l6Ue2SRptQaa-38" value="Billing" style="rounded=1;whiteSpace=wrap;html=1;absoluteArcSize=1;arcSize=14;strokeWidth=2;" vertex="1" parent="1">
          <mxGeometry x="130" y="450" width="100" height="60" as="geometry" />
        </mxCell>
        <mxCell id="i0W9wjr1l6Ue2SRptQaa-41" value="Invoice" style="shape=parallelogram;html=1;strokeWidth=2;perimeter=parallelogramPerimeter;whiteSpace=wrap;rounded=1;arcSize=12;size=0.23;" vertex="1" parent="1">
          <mxGeometry x="130" y="550" width="100" height="60" as="geometry" />
        </mxCell>
        <mxCell id="i0W9wjr1l6Ue2SRptQaa-44" value="Customer credit" style="shape=parallelogram;html=1;strokeWidth=2;perimeter=parallelogramPerimeter;whiteSpace=wrap;rounded=1;arcSize=12;size=0.23;" vertex="1" parent="1">
          <mxGeometry x="530" y="430" width="100" height="60" as="geometry" />
        </mxCell>
      </root>
    </mxGraphModel>
  </diagram>
</mxfile>
